<?xml version="1.0" encoding="UTF-8" standalone="no"?>
<!-- Created with Inkscape (http://www.inkscape.org/) -->

<svg
   xmlns:dc="http://purl.org/dc/elements/1.1/"
   xmlns:cc="http://creativecommons.org/ns#"
   xmlns:rdf="http://www.w3.org/1999/02/22-rdf-syntax-ns#"
   xmlns:svg="http://www.w3.org/2000/svg"
   xmlns="http://www.w3.org/2000/svg"
   xmlns:sodipodi="http://sodipodi.sourceforge.net/DTD/sodipodi-0.dtd"
   xmlns:inkscape="http://www.inkscape.org/namespaces/inkscape"
   width="1400"
   height="112.438"
   id="svg2"
   version="1.1"
   inkscape:version="0.48.3.1 r9886"
   sodipodi:docname="fallen.svg"
   inkscape:export-filename="/home/james/dev/htm/sliding/snow/fallen/fallen.png"
   inkscape:export-xdpi="90"
   inkscape:export-ydpi="90">
  <defs
     id="defs4">
    <filter
       inkscape:collect="always"
       id="filter3785"
       color-interpolation-filters="sRGB">
      <feGaussianBlur
         inkscape:collect="always"
         stdDeviation="8.4440636"
         id="feGaussianBlur3787" />
    </filter>
    <filter
       inkscape:collect="always"
       id="filter3809"
       color-interpolation-filters="sRGB">
      <feGaussianBlur
         inkscape:collect="always"
         stdDeviation="0.69200877"
         id="feGaussianBlur3811" />
    </filter>
    <filter
       inkscape:collect="always"
       id="filter3832"
       color-interpolation-filters="sRGB">
      <feGaussianBlur
         inkscape:collect="always"
         stdDeviation="3.8255866"
         id="feGaussianBlur3834" />
    </filter>
    <clipPath
       clipPathUnits="userSpaceOnUse"
       id="clipPath3851">
      <rect
         style="fill:#aa0000;fill-rule:evenodd;stroke:#000000;stroke-width:0.20500986px;stroke-linecap:butt;stroke-linejoin:miter;stroke-opacity:1"
         id="rect3853"
         width="549.26349"
         height="98.269012"
         x="-182.25494"
         y="714.70892" />
    </clipPath>
  </defs>
  <sodipodi:namedview
     id="base"
     pagecolor="#ffffff"
     bordercolor="#666666"
     borderopacity="1.0"
     inkscape:pageopacity="0.0"
     inkscape:pageshadow="2"
     inkscape:zoom="0.7"
     inkscape:cx="193.00804"
     inkscape:cy="6.1110804"
     inkscape:document-units="px"
     inkscape:current-layer="layer1"
     showgrid="false"
     showguides="true"
     inkscape:guide-bbox="true"
     inkscape:snap-global="false"
     fit-margin-top="0"
     fit-margin-left="0"
     fit-margin-right="0"
     fit-margin-bottom="0"
     inkscape:window-width="1920"
     inkscape:window-height="1030"
     inkscape:window-x="0"
     inkscape:window-y="0"
     inkscape:window-maximized="1">
    <sodipodi:guide
       orientation="0,1"
       position="736.62946,-24.982724"
       id="guide3761" />
  </sodipodi:namedview>
  <metadata
     id="metadata7">
    <rdf:RDF>
      <cc:Work
         rdf:about="">
        <dc:format>image/svg+xml</dc:format>
        <dc:type
           rdf:resource="http://purl.org/dc/dcmitype/StillImage" />
      </cc:Work>
    </rdf:RDF>
  </metadata>
  <g
     inkscape:label="Layer 1"
     inkscape:groupmode="layer"
     id="layer1"
     transform="translate(182.34375,-700.65574)">
    <g
       id="g3836"
       clip-path="url(#clipPath3851)"
       transform="matrix(1.2744339,0,0,1.274435,49.928129,-222.99379)">
      <path
         transform="matrix(0.47884317,0,0,0.47884317,-106.16704,372.422)"
         sodipodi:nodetypes="csssccccccccccsssssccsccsssccsssssccscc"
         inkscape:connector-curvature="0"
         id="path3768"
         d="m 69.676555,756.06047 c -12.392994,-0.0543 -43.318784,9.96545 -64.2187499,9.90625 -21.5741641,-0.0611 -33.3635341,-7.74586 -57.9062501,-2.9375 -24.542713,4.80837 -37.173145,-2.53104 -52.468745,-4.46875 -15.2956,-1.93772 -51.82742,2.29128 -78.53125,2.1875 l 3.375,260.75003 359.375,1.0625 -0.0312,-0.375 353.81245,1.0937 -0.0625,-1.75 351.34375,1.0313 0,-0.375 353.78124,1.0937 -6.0312,-261.99998 c -17.702,0 -38.0515,-2.01059 -58.9688,0 -20.9174,2.01058 -31.9398,-3.75142 -43.4688,-4.5 -11.5289,-0.74857 -43.7696,9.93611 -65.3437,9.875 -21.5742,-0.0611 -33.3636,-7.74585 -57.9063,-2.9375 -24.54266,4.80836 -37.17308,-2.49979 -52.46869,-4.4375 -14.7436,-1.86778 -49.20903,1.96902 -75.59375,2.15625 l -0.0312,-0.875 c -17.70194,0 -38.05138,-2.01058 -58.96875,0 -20.91738,2.01058 -31.93985,-3.72018 -43.46875,-4.46875 -0.36028,-0.0234 -0.75648,-0.0295 -1.15625,-0.0312 -12.39299,-0.0543 -43.28753,9.96545 -64.1875,9.90625 -21.57416,-0.0611 -33.36353,-7.74586 -57.90625,-2.9375 -24.54271,4.80837 -37.17315,-2.53104 -52.46875,-4.46875 -15.2956,-1.93772 -51.82742,2.29128 -78.53125,2.1875 l 0,0.46875 c -16.39538,-0.30685 -34.76085,-1.74773 -53.59375,0.0625 -20.91739,2.01058 -31.93985,-3.75142 -43.46875,-4.5 -11.5289,-0.74857 -43.7696,9.93611 -65.34375,9.875 -21.57417,-0.0611 -33.36354,-7.74585 -57.90625,-2.9375 -24.54272,4.80836 -37.17314,-2.49979 -52.46875,-4.4375 -14.7436,-1.86778 -49.17778,1.96902 -75.5625,2.15625 l -0.0312,-0.875 c -17.70194,0 -38.08263,-2.01058 -59,0 -20.917378,2.01058 -31.939852,-3.72018 -43.468755,-4.46875 -0.360279,-0.0234 -0.72523,-0.0295 -1.125,-0.0312 z"
         style="opacity:0.33333333;fill:#ffffff;fill-opacity:1;stroke:none;filter:url(#filter3785)" />
      <path
         transform="matrix(0.47884317,0,0,0.47884317,-106.16704,372.422)"
         sodipodi:nodetypes="czzzzzcccc"
         inkscape:connector-curvature="0"
         id="path2987"
         d="m -172.11588,842.76087 c 87.505338,0.36869 207.207572,-14.60283 257.329479,-7.71884 50.121901,6.88399 91.535981,32.89264 171.959581,15.81029 80.4236,-17.08234 119.03344,10.22326 189.72945,10.44038 70.69601,0.21712 176.3461,-37.7215 214.12496,-35.0621 37.77886,2.6594 73.93239,23.02934 142.47616,15.88648 68.54377,-7.14286 135.25678,0 193.26395,0 l 5.7623,190.44642 -1177.55103,-3.8736 z"
         style="fill:#ffffff;fill-opacity:1;stroke:none;filter:url(#filter3809)" />
      <path
         transform="matrix(0.47884317,0,0,0.47884317,-106.16704,372.422)"
         sodipodi:nodetypes="csssccccccsssssccsccc"
         inkscape:connector-curvature="0"
         id="path3763"
         d="m 301.95622,786.36707 c -23.47005,-0.11138 -82.01306,20.46531 -121.59375,20.34375 -40.8575,-0.12548 -63.17686,-15.90368 -109.65625,-6.03125 -46.479385,9.87244 -70.40794074,-5.17777 -99.375,-9.15625 -28.967062,-3.97848 -98.1466,4.68183 -148.71875,4.46875 l 2.35311,164.03729 680.5625,2.21875 -0.0312,-0.78125 670.03122,2.21875 -7.3843,-166.63104 c -33.5242,0 -72.0739,-4.12809 -111.6875,0 -39.6137,4.12808 -60.51016,-7.65055 -82.34378,-9.1875 -21.83362,-1.53696 -82.89251,20.37548 -123.75,20.25 -40.8575,-0.12548 -63.17687,-15.90368 -109.65625,-6.03125 -46.47939,9.87244 -70.40794,-5.14652 -99.375,-9.125 -27.92168,-3.8349 -93.15719,4.05308 -143.125,4.4375 l -0.0625,-1.78125 c -33.52421,0 -72.07385,-4.12809 -111.6875,0 -39.61365,4.12808 -60.51013,-7.65055 -82.34375,-9.1875 -0.6823,-0.048 -1.39915,-0.0589 -2.15625,-0.0625 z"
         style="opacity:0.33333333;fill:#ffffff;fill-opacity:1;stroke:none;filter:url(#filter3832)" />
    </g>
    <g
       transform="matrix(-1.2744339,0,0,1.274435,985.38438,-222.99379)"
       clip-path="url(#clipPath3851)"
       id="g3855">
      <path
         style="opacity:0.33333333;fill:#ffffff;fill-opacity:1;stroke:none;filter:url(#filter3785)"
         d="m 69.676555,756.06047 c -12.392994,-0.0543 -43.318784,9.96545 -64.2187499,9.90625 -21.5741641,-0.0611 -33.3635341,-7.74586 -57.9062501,-2.9375 -24.542713,4.80837 -37.173145,-2.53104 -52.468745,-4.46875 -15.2956,-1.93772 -51.82742,2.29128 -78.53125,2.1875 l 3.375,260.75003 359.375,1.0625 -0.0312,-0.375 353.81245,1.0937 -0.0625,-1.75 351.34375,1.0313 0,-0.375 353.78124,1.0937 -6.0312,-261.99998 c -17.702,0 -38.0515,-2.01059 -58.9688,0 -20.9174,2.01058 -31.9398,-3.75142 -43.4688,-4.5 -11.5289,-0.74857 -43.7696,9.93611 -65.3437,9.875 -21.5742,-0.0611 -33.3636,-7.74585 -57.9063,-2.9375 -24.54266,4.80836 -37.17308,-2.49979 -52.46869,-4.4375 -14.7436,-1.86778 -49.20903,1.96902 -75.59375,2.15625 l -0.0312,-0.875 c -17.70194,0 -38.05138,-2.01058 -58.96875,0 -20.91738,2.01058 -31.93985,-3.72018 -43.46875,-4.46875 -0.36028,-0.0234 -0.75648,-0.0295 -1.15625,-0.0312 -12.39299,-0.0543 -43.28753,9.96545 -64.1875,9.90625 -21.57416,-0.0611 -33.36353,-7.74586 -57.90625,-2.9375 -24.54271,4.80837 -37.17315,-2.53104 -52.46875,-4.46875 -15.2956,-1.93772 -51.82742,2.29128 -78.53125,2.1875 l 0,0.46875 c -16.39538,-0.30685 -34.76085,-1.74773 -53.59375,0.0625 -20.91739,2.01058 -31.93985,-3.75142 -43.46875,-4.5 -11.5289,-0.74857 -43.7696,9.93611 -65.34375,9.875 -21.57417,-0.0611 -33.36354,-7.74585 -57.90625,-2.9375 -24.54272,4.80836 -37.17314,-2.49979 -52.46875,-4.4375 -14.7436,-1.86778 -49.17778,1.96902 -75.5625,2.15625 l -0.0312,-0.875 c -17.70194,0 -38.08263,-2.01058 -59,0 -20.917378,2.01058 -31.939852,-3.72018 -43.468755,-4.46875 -0.360279,-0.0234 -0.72523,-0.0295 -1.125,-0.0312 z"
         id="path3857"
         inkscape:connector-curvature="0"
         sodipodi:nodetypes="csssccccccccccsssssccsccsssccsssssccscc"
         transform="matrix(0.47884317,0,0,0.47884317,-106.16704,372.422)" />
      <path
         style="fill:#ffffff;fill-opacity:1;stroke:none;filter:url(#filter3809)"
         d="m -172.11588,842.76087 c 87.505338,0.36869 207.207572,-14.60283 257.329479,-7.71884 50.121901,6.88399 91.535981,32.89264 171.959581,15.81029 80.4236,-17.08234 119.03344,10.22326 189.72945,10.44038 70.69601,0.21712 176.3461,-37.7215 214.12496,-35.0621 37.77886,2.6594 73.93239,23.02934 142.47616,15.88648 68.54377,-7.14286 135.25678,0 193.26395,0 l 5.7623,190.44642 -1177.55103,-3.8736 z"
         id="path3859"
         inkscape:connector-curvature="0"
         sodipodi:nodetypes="czzzzzcccc"
         transform="matrix(0.47884317,0,0,0.47884317,-106.16704,372.422)" />
      <path
         style="opacity:0.33333333;fill:#ffffff;fill-opacity:1;stroke:none;filter:url(#filter3832)"
         d="m 301.95622,786.36707 c -23.47005,-0.11138 -82.01306,20.46531 -121.59375,20.34375 -40.8575,-0.12548 -63.17686,-15.90368 -109.65625,-6.03125 -46.479385,9.87244 -70.40794074,-5.17777 -99.375,-9.15625 -28.967062,-3.97848 -98.1466,4.68183 -148.71875,4.46875 l 2.35311,164.03729 680.5625,2.21875 -0.0312,-0.78125 670.03122,2.21875 -7.3843,-166.63104 c -33.5242,0 -72.0739,-4.12809 -111.6875,0 -39.6137,4.12808 -60.51016,-7.65055 -82.34378,-9.1875 -21.83362,-1.53696 -82.89251,20.37548 -123.75,20.25 -40.8575,-0.12548 -63.17687,-15.90368 -109.65625,-6.03125 -46.47939,9.87244 -70.40794,-5.14652 -99.375,-9.125 -27.92168,-3.8349 -93.15719,4.05308 -143.125,4.4375 l -0.0625,-1.78125 c -33.52421,0 -72.07385,-4.12809 -111.6875,0 -39.61365,4.12808 -60.51013,-7.65055 -82.34375,-9.1875 -0.6823,-0.048 -1.39915,-0.0589 -2.15625,-0.0625 z"
         id="path3861"
         inkscape:connector-curvature="0"
         sodipodi:nodetypes="csssccccccsssssccsccc"
         transform="matrix(0.47884317,0,0,0.47884317,-106.16704,372.422)" />
    </g>
  </g>
</svg>
